<?xml version="1.0" standalone="no"?>
<!DOCTYPE svg PUBLIC "-//W3C//DTD SVG 20010904//EN"
 "http://www.w3.org/TR/2001/REC-SVG-20010904/DTD/svg10.dtd">
<svg version="1.0" xmlns="http://www.w3.org/2000/svg"
 width="454.000000pt" height="142.000000pt" viewBox="0 0 454.000000 142.000000"
 preserveAspectRatio="xMidYMid meet">

<g transform="translate(0.000000,142.000000) scale(0.100000,-0.100000)"
fill="#006400" stroke="none">
<path d="M378 1278 c-84 -127 -167 -377 -168 -501 0 -45 3 -52 58 -107 32 -33
73 -86 92 -120 19 -33 37 -60 40 -60 3 1 20 28 39 61 19 33 61 87 93 119 42
44 58 67 58 87 0 51 -29 196 -55 273 -28 85 -116 262 -132 267 -5 2 -17 -7
-25 -19z"/>
<path d="M2890 810 l0 -340 60 0 60 0 2 176 3 177 28 20 c40 31 94 28 123 -7
23 -26 24 -33 24 -197 l0 -169 63 0 62 0 -5 192 c-5 187 -6 194 -32 234 -14
22 -42 48 -61 57 -47 23 -124 22 -170 -2 l-37 -19 0 109 0 109 -60 0 -60 0 0
-340z"/>
<path d="M933 1104 c-10 -4 -13 -78 -13 -320 l0 -314 60 0 60 0 0 83 0 83 71
11 c87 13 143 49 179 113 47 84 28 235 -36 291 -47 41 -88 53 -199 56 -60 1
-116 0 -122 -3z m201 -114 c60 -23 85 -124 46 -188 -21 -35 -72 -62 -115 -62
l-25 0 0 130 0 130 34 0 c19 0 46 -4 60 -10z"/>
<path d="M2401 1083 c-65 -34 -101 -91 -101 -160 0 -111 67 -171 215 -192 98
-14 134 -43 121 -96 -10 -41 -61 -65 -136 -65 -77 0 -134 23 -173 69 l-27 33
0 -82 0 -81 48 -21 c67 -30 206 -37 268 -13 109 41 161 134 134 237 -21 79
-77 116 -207 138 -84 14 -123 39 -123 78 0 15 4 32 8 38 29 43 127 46 205 5
l55 -29 6 37 c12 74 9 86 -31 105 -24 12 -70 20 -123 23 -79 5 -89 3 -139 -24z"/>
<path d="M1546 949 c-21 -17 -26 -18 -26 -5 0 13 -12 16 -60 16 l-60 0 0 -245
0 -245 60 0 60 0 0 175 c0 161 2 177 20 195 29 29 63 34 99 16 l31 -17 0 66 0
65 -49 0 c-34 0 -56 -6 -75 -21z"/>
<path d="M1865 959 c-43 -12 -112 -74 -136 -122 -29 -56 -35 -140 -15 -209 51
-177 290 -227 420 -88 51 54 70 108 69 190 -3 145 -99 241 -242 239 -37 0 -80
-5 -96 -10z m145 -104 c49 -25 73 -70 73 -134 0 -100 -43 -151 -126 -151 -91
0 -141 54 -142 151 0 64 19 100 68 129 38 24 87 26 127 5z"/>
<path d="M3571 957 c-195 -74 -213 -372 -27 -470 61 -32 174 -31 241 3 171 88
177 367 10 454 -48 25 -172 32 -224 13z m160 -103 c58 -29 86 -135 55 -208
-22 -52 -60 -76 -122 -76 -45 0 -59 5 -87 30 -54 47 -66 137 -28 208 30 55
120 78 182 46z"/>
<path d="M4178 952 c-30 -16 -38 -17 -38 -6 0 10 -15 14 -55 14 l-55 0 0 -335
0 -335 55 0 55 0 0 96 c0 88 2 95 18 89 9 -5 44 -10 77 -12 52 -4 68 -1 115
24 166 87 187 359 35 453 -53 33 -157 39 -207 12z m149 -115 c31 -29 37 -41
41 -89 5 -66 -10 -117 -45 -152 -21 -21 -35 -26 -79 -26 -29 0 -65 5 -79 12
-25 11 -25 12 -25 130 l0 118 33 20 c18 12 50 20 75 20 34 0 49 -6 79 -33z"/>
<path d="M90 663 c1 -115 20 -199 65 -289 39 -76 125 -172 203 -226 l42 -29
43 29 c51 36 137 123 172 174 61 89 95 214 95 344 l0 85 -32 -18 c-18 -10 -69
-54 -114 -99 -67 -67 -86 -94 -112 -155 -16 -41 -33 -92 -37 -114 -12 -71 -17
-71 -32 0 -21 102 -75 197 -158 280 -38 39 -85 78 -102 88 l-33 18 0 -88z"/>
</g>
</svg>
